# xmcd
#
# Track frame offsets:
#	150
#	12750
#	23715
#	36122
#	48212
#	61197
#	74622
#	87152
#	99372
#	113312
#	125937
#	138322
#	151542
#	162952
#	174207
#	184950
#	197447
#	206912
#
# Disc length: 2911
#
# Revision: 2
# Processed by: cddbd v1.5.1PL0 Copyright (c) Steve Scherf et al.
# Submitted via: DiscPlay 4.0.4
# Normalized: r1:DSETVAR1
#
DISCID=e20b5d12
DTITLE=Various Artist - Hillbilly Fever - Vol. 4: Legends of the West Coast
DYEAR=1900
DGENRE=
TTITLE0=Jack Guthrie and His Oklahomans - Oklahoma Hills
TTITLE1=Gene Autry - You Are My Sunshine
TTITLE2=Sons Of The Pioneers - Cool Water
TTITLE3=Al Dexter and His Troopers - Too Late To Worry
TTITLE4=Spade Cooley and His Orchestra - Shame On You
TTITLE5=Maddox Bros. and Rose - New Muleskinner Blues
TTITLE6=Jimmy Wakely - One Has My Name (The Other Has My Heart)
TTITLE7=Red Ingle and The Natural Seven - Tempation (Tim-Tayshun)
TTITLE8=Tennessee Ernie Ford - Mule Train
TTITLE9=Tex Ritter - High Noon (Do Not Forsake Me)
TTITLE10=Skeets McDonald - Don't Let The Stars Get In Your Eyes
TTITLE11=Joe Maphis and Rose Lee - Dim Lights, Thick Smoke (And Loud, Loud Music)
TTITLE12=Jean Shepard - A Dear John Letter
TTITLE13=Tommy Collins - You Better Not Do That
TTITLE14=Ferlin Husky - Gone
TTITLE15=Wynn Stewart - Wishful Thinking
TTITLE16=Buck Owens - Second Fiddle
TTITLE17=Merle Haggard - Sing A Sad Song
EXTD=
EXTT0=
EXTT1=
EXTT2=
EXTT3=
EXTT4=
EXTT5=
EXTT6=
EXTT7=
EXTT8=
EXTT9=
EXTT10=
EXTT11=
EXTT12=
EXTT13=
EXTT14=
EXTT15=
EXTT16=
EXTT17=
PLAYORDER=
